<?xml version="1.0" encoding="UTF-8"?>
<svg width="69px" height="29px" viewBox="0 0 69 29" version="1.1" xmlns="http://www.w3.org/2000/svg" xmlns:xlink="http://www.w3.org/1999/xlink">
    <title>gco</title>
    <g id="Page-1" stroke="none" stroke-width="1" fill="none" fill-rule="evenodd">
        <g id="gco." transform="translate(0.381250, 0.559375)" fill="#FFFFFF" fill-rule="nonzero">
            <path d="M10.5227621,28 C9.06018873,28 7.7954444,27.8279457 6.72852907,27.483837 C5.66161375,27.1397284 4.72401811,26.6906242 3.91574216,26.1365245 C3.10746621,25.5824248 2.35051645,25.0009883 1.64489288,24.392215 L4.46403979,21.1017598 C5.2923999,21.8729916 6.17007779,22.5156848 7.09707345,23.0298393 C8.02406912,23.5439939 9.13740117,23.8010712 10.4370696,23.8010712 C11.6198036,23.8010712 12.6503443,23.6025727 13.5286917,23.2055757 C14.407039,22.8085788 15.0896774,22.2509086 15.5766067,21.532565 C16.0635361,20.8142215 16.3112408,19.9536151 16.3197207,18.950746 L16.3324407,14.4391737 L16.6243305,15.3436305 C16.132938,16.4687898 15.2466686,17.427697 13.9655222,18.220352 C12.6843758,19.0130069 11.0855649,19.4093344 9.16908952,19.4093344 C7.51772507,19.4093344 5.99222137,18.9865627 4.59257842,18.1410195 C3.19293548,17.2954763 2.077595,16.1486706 1.246557,14.7006025 C0.415519,13.2525344 0,11.6144478 0,9.78634277 C0,7.88370314 0.439843152,6.20042719 1.31952946,4.73651492 C2.19921576,3.27260265 3.35461298,2.11720543 4.78572112,1.27032326 C6.21682925,0.423441086 7.75070135,-4.87105043e-14 9.38733741,-4.87105043e-14 C10.9896072,-4.87105043e-14 12.4134628,0.284971946 13.658904,0.854915838 C14.9043452,1.42485973 15.8312293,2.14677378 16.4395562,3.020658 L16.2126052,3.69347743 L16.7267598,0.814078041 L21.1359028,0.814078041 L21.1359028,19.0237184 C21.1359028,20.7148049 20.6838976,22.237296 19.7798871,23.5911917 C18.8758767,24.9450874 17.629766,26.0183627 16.0415551,26.8110176 C14.4533442,27.6036725 12.6137465,28 10.5227621,28 Z M4.8329189,9.65311783 C4.8329189,10.7474815 5.08709513,11.735176 5.59544759,12.6162012 C6.10380005,13.4972265 6.79357944,14.1941469 7.66478577,14.7069625 C8.53599209,15.2197781 9.50873502,15.4761859 10.5830145,15.4761859 C11.5399133,15.4761859 12.397507,15.3176326 13.1557957,15.000526 C13.9140844,14.6834194 14.5667081,14.2385552 15.1136668,13.6659334 C15.6606255,13.0933117 16.0668834,12.4242859 16.3324407,11.6588562 L16.3324407,7.70361515 C16.0842897,6.93818541 15.6794823,6.27630069 15.1180184,5.71796098 C14.5565545,5.15962127 13.8931076,4.72256758 13.1276779,4.40679992 C12.3622482,4.09103226 11.514027,3.93314843 10.5830145,3.93314843 C9.50873502,3.93314843 8.53599209,4.17817521 7.66478577,4.66822877 C6.79357944,5.15828233 6.10380005,5.83177123 5.59544759,6.68869549 C5.08709513,7.54561974 4.8329189,8.53376052 4.8329189,9.65311783 Z" id="Shape"></path>
            <path d="M40.8112462,17.2884468 C39.999846,17.9369421 39.0136021,18.4525472 37.8525143,18.8352621 C36.6914266,19.2179769 35.5324589,19.4093344 34.3756111,19.4093344 C32.3618391,19.4093344 30.5986729,19.020929 29.0861123,18.2441182 C27.5735517,17.4673074 26.3967314,16.3669185 25.5556513,14.9429514 C24.7145712,13.5189843 24.2940312,11.8244389 24.2940312,9.85931523 C24.2940312,7.89374522 24.7439164,6.19908824 25.6436869,4.7753443 C26.5434573,3.35160036 27.7274187,2.25623247 29.195571,1.48924063 C30.6637232,0.722248789 32.2232584,0.338752869 33.8741766,0.338752869 C35.405036,0.338752869 36.7553612,0.550082887 37.9251521,0.972742923 C39.0949429,1.39540296 40.1011595,1.9608837 40.9438016,2.66918516 L38.5832431,5.78022188 C38.1230926,5.41469013 37.5281551,5.06980043 36.7984306,4.74555279 C36.068706,4.42130515 35.2367754,4.25918133 34.3026387,4.25918133 C33.3457399,4.25918133 32.4709631,4.50342706 31.6783082,4.99191852 C30.8856532,5.48040997 30.2572421,6.14519574 29.7930748,6.98627582 C29.3289075,7.8273559 29.0968238,8.78503571 29.0968238,9.85931523 C29.0968238,10.8845001 29.3389496,11.8276747 29.823201,12.6888389 C30.3074525,13.5500032 30.9751393,14.2298521 31.8262615,14.7283856 C32.6773836,15.2269192 33.6599455,15.4761859 34.773947,15.4761859 C35.4907285,15.4761859 36.1555142,15.3705209 36.7683043,15.1591909 C37.3810944,14.9478609 37.9173416,14.6536279 38.3770457,14.276492 L40.8112462,17.2884468 Z" id="Path"></path>
            <path d="M42.2853923,9.68324407 C42.2853923,7.855139 42.7180944,6.20991137 43.5834986,4.74756121 C44.4489029,3.28521104 45.6554031,2.13126435 47.2029994,1.28572112 C48.7505957,0.440177888 50.5161051,0.0174062739 52.4995277,0.0174062739 C54.5132997,0.0174062739 56.271445,0.440177888 57.7739634,1.28572112 C59.2764819,2.13126435 60.4383507,3.2854342 61.2595698,4.74823068 C62.0807889,6.21102716 62.4913984,7.85402321 62.4913984,9.67721882 C62.4913984,11.5093407 62.0807889,13.1617094 61.2595698,14.6343248 C60.4383507,16.1069402 59.2743619,17.270929 57.7676035,18.1262911 C56.260845,18.9816533 54.4827272,19.4093344 52.43325,19.4093344 C50.4837473,19.4093344 48.7427852,19.0159079 47.2103636,18.2290551 C45.677942,17.4422022 44.4740081,16.3199439 43.5985618,14.86228 C42.7231154,13.4046162 42.2853923,11.6782708 42.2853923,9.68324407 Z M47.1183112,9.72609028 C47.1183112,10.8008161 47.3498369,11.7731127 47.8128885,12.6429801 C48.27594,13.5128475 48.9052437,14.2025153 49.7007997,14.7119836 C50.4963557,15.2214518 51.3850799,15.4761859 52.3669722,15.4761859 C53.4109024,15.4761859 54.3295296,15.2220097 55.122854,14.7136572 C55.9161784,14.2053048 56.5349938,13.5158601 56.9793001,12.6453233 C57.4236064,11.7747864 57.6457595,10.8017087 57.6457595,9.72609028 C57.6457595,8.63574343 57.4236064,7.65909526 56.9793001,6.79614575 C56.5349938,5.93319625 55.9167363,5.2453137 55.1245277,4.73249809 C54.3323191,4.21968248 53.4151424,3.96327467 52.3729975,3.96327467 C51.3750378,3.96327467 50.4797305,4.22392247 49.6870755,4.74521806 C48.8944206,5.26651364 48.2681295,5.95997513 47.8082022,6.82560252 C47.3482748,7.69122992 47.1183112,8.65805917 47.1183112,9.72609028 Z" id="Shape"></path>
            <path d="M63.4773635,16.3505164 C63.4773635,15.6105267 63.7453754,14.9876945 64.2813994,14.4820199 C64.8174234,13.9763453 65.4107988,13.723508 66.0615257,13.723508 C66.6720842,13.723508 67.2473839,13.9763453 67.7874247,14.4820199 C68.3274655,14.9876945 68.5974859,15.6105267 68.5974859,16.3505164 C68.5974859,17.1387082 68.3274655,17.7684583 67.7874247,18.2397666 C67.2473839,18.711075 66.6720842,18.9467292 66.0615257,18.9467292 C65.4107988,18.9467292 64.8174234,18.711075 64.2813994,18.2397666 C63.7453754,17.7684583 63.4773635,17.1387082 63.4773635,16.3505164 Z" id="Path"></path>
        </g>
    </g>
</svg>